<?xml version="1.0" encoding="UTF-8"?>
<svg height="128px" width="92,5744" id="_Слой_1" data-name="Слой 1" xmlns="http://www.w3.org/2000/svg" viewBox="0 0 92.57 128">
  <defs>
    <style>
      .cls-1 {
        fill: #000;
        stroke-width: 0px;
      }
    </style>
  </defs>
  <path class="cls-1" d="M46.29,128c-4.37-3.96-11.21-11.16-16.31-22.09-5.54-11.89-6.42-22.62-6.47-28.67,15.18,0,30.37,0,45.55,0,.04,5.98-.68,17.02-6.47,29.19-5.11,10.75-11.97,17.76-16.31,21.57Z"/>
  <path class="cls-1" d="M79.42,32.09c11.64,19.21,13.02,37.58,13.15,45.76H0c.13-8.18,1.51-26.55,13.15-45.76C24.33,13.63,39.16,4.02,46.29,0c7.13,4.02,21.95,13.63,33.14,32.09ZM46.29,27.09c-3.32,2.75-7.59,6.87-11.57,12.62-4.12,5.96-6.49,11.6-7.89,15.78,12.97,0,25.95,0,38.92,0-1.4-4.18-3.77-9.82-7.89-15.78-3.98-5.75-8.25-9.87-11.57-12.62Z"/>
</svg>