<?xml version="1.0" encoding="UTF-8"?>
<svg id="_Слой_1" data-name="Слой 1" xmlns="http://www.w3.org/2000/svg" viewBox="0 0 1366 768">
  <defs>
    <style>
      .cls-1 {
        fill: #fff;
        stroke-width: 0px;
      }
    </style>
  </defs>
  <path class="cls-1" d="M683,505.18c-8.31-7.52-21.32-21.22-31-42-10.53-22.6-12.2-43-12.3-54.5,28.87,0,57.74,0,86.6,0,.07,11.36-1.3,32.36-12.3,55.5-9.71,20.43-22.75,33.76-31,41Z"/>
  <path class="cls-1" d="M746,322.82c22.14,36.52,24.76,71.44,25,87h-176c.24-15.56,2.86-50.48,25-87,21.26-35.08,49.45-53.37,63-61,13.55,7.63,41.74,25.92,63,61ZM683,313.32c-6.32,5.24-14.44,13.06-22,24-7.83,11.33-12.35,22.06-15,30,24.67,0,49.33,0,74,0-2.65-7.94-7.17-18.67-15-30-7.56-10.94-15.68-18.76-22-24Z"/>
</svg>